PathFileType	4	(X/Y/Z)	/Users/itak/Documents/Research/Walk-IL/dataset/trc/00074_00006.trc
DataRate	CameraRate	NumFrames	NumMarkers	Units	OrigDataRate	OrigDataStartFrame	OrigNumFrames
100.000000	100.000000	4	53	mm	100.000000	89	718
Frame#	Time	RPSI			LPSI			L3			STRN			T10			C7			CLAV			RBAK			LBAK			LSHO			LUPA			LAEL			LAOL			LWTS			LWPS			LFRA			LIFD			LHPS			LHTS			RSHO			RUPA			RAEL			RAOL			RWTS			RWPS			RFRA			RIFD			RHTS			RHPS			RBHD			LFHD			RFHD			LBHD			LHIP			RHIP			RASI			LASI			LKNE			LTHI			LANK			LTIP			LTOE			LMT1			LMT5			LHEE			RKNE			RTHI			RANK			RTIP			RTOE			RMT1			RMT5			RHEE			
		X1	Y1	Z1	X2	Y2	Z2	X3	Y3	Z3	X4	Y4	Z4	X5	Y5	Z5	X6	Y6	Z6	X7	Y7	Z7	X8	Y8	Z8	X9	Y9	Z9	X10	Y10	Z10	X11	Y11	Z11	X12	Y12	Z12	X13	Y13	Z13	X14	Y14	Z14	X15	Y15	Z15	X16	Y16	Z16	X17	Y17	Z17	X18	Y18	Z18	X19	Y19	Z19	X20	Y20	Z20	X21	Y21	Z21	X22	Y22	Z22	X23	Y23	Z23	X24	Y24	Z24	X25	Y25	Z25	X26	Y26	Z26	X27	Y27	Z27	X28	Y28	Z28	X29	Y29	Z29	X30	Y30	Z30	X31	Y31	Z31	X32	Y32	Z32	X33	Y33	Z33	X34	Y34	Z34	X35	Y35	Z35	X36	Y36	Z36	X37	Y37	Z37	X38	Y38	Z38	X39	Y39	Z39	X40	Y40	Z40	X41	Y41	Z41	X42	Y42	Z42	X43	Y43	Z43	X44	Y44	Z44	X45	Y45	Z45	X46	Y46	Z46	X47	Y47	Z47	X48	Y48	Z48	X49	Y49	Z49	X50	Y50	Z50	X51	Y51	Z51	X52	Y52	Z52	X53	Y53	Z53	

90	0.89	267.0171508789062	1030.588256835938	1057.828979492188	279.2933044433594	1021.829956054688	1233.3232421875	270.0920715332031	1080.860107421875	1152.817749023438	25.35103988647461	1279.79345703125	1149.802124023438	291.7014770507812	1213.8154296875	1160.5166015625	234.7269897460938	1481.3271484375	1161.120971679688	56.07125854492188	1393.652954101562	1150.52978515625	300.2594909667969	1341.596557617188	1089.09814453125	251.4914398193359	1445.158935546875	1264.18798828125	143.5027923583984	1450.614135742188	1330.899536132812	150.8318939208984	1322.410766601562	1409.374633789062	118.8948135375977	1104.8603515625	1417.540283203125	194.5740509033203	1092.724975585938	1342.7607421875	35.89822006225586	869.296142578125	1325.104125976562	81.5635986328125	855.1282958984375	1393.271484375	93.53579711914062	995.5537719726562	1415.000732421875	23.67415237426758	684.4235229492188	1294.994873046875	49.10671997070312	774.948974609375	1378.93212890625	12.07583999633789	786.3643188476562	1320.548828125	179.2488555908203	1441.523803710938	982.1373291015625	191.1779479980469	1370.405151367188	920.2902221679688	207.0994110107422	1101.46337890625	902.3707275390625	185.6977233886719	1085.489990234375	997.7288208007812	49.32082748413086	859.1463623046875	941.4873046875	120.6268920898438	838.57373046875	894.855712890625	189.7179565429688	1022.319152832031	897.97265625	33.83115386962891	668.7723388671875	961.1348876953125	23.34713363647461	755.3934326171875	943.4976196289062	81.79586791992188	750.5797119140625	893.820556640625	195.9860992431641	1654.289428710938	1224.166748046875	70.43450164794922	1694.69384765625	1053.635375976562	35.83399963378906	1714.414306640625	1173.603149414062	223.8382263183594	1627.621948242188	1092.110595703125	177.4896697998047	958.9080810546875	1325.6923828125	197.8054351806641	961.6694946289062	981.1743774414062	74.67195892333984	976.8446655273438	1005.195678710938	64.69180297851562	966.6101684570312	1273.026977539062	111.6138763427734	494.2604064941406	1276.532104492188	142.2738952636719	635.8474731445312	1312.15673828125	270.7968444824219	49.30173873901367	1288.65625	198.6294250488281	258.52001953125	1295.0947265625	65.19664764404297	46.30250930786133	1290.078002929688	111.4987640380859	44.57634353637695	1234.4599609375	169.3634490966797	40.81022644042969	1331.12255859375	319.713134765625	45.47099685668945	1210.450317382812	110.2877731323242	516.4784545898438	985.7223510742188	113.3542327880859	788.5362548828125	969.5025024414062	248.5418701171875	45.34443664550781	971.475830078125	143.2925567626953	394.9631042480469	972.8328857421875	33.44704437255859	42.08132553100586	1005.147155761719	93.56672668457031	45.88249588012695	1046.23486328125	124.1946182250977	46.86642837524414	953.3297729492188	295.3461303710938	47.87005233764648	1028.984741210938	
91	0.9	266.9513549804688	1030.583374023438	1058.498779296875	278.7861022949219	1021.859436035156	1233.825317382812	269.7029113769531	1081.34033203125	1153.73193359375	23.94999504089355	1279.302368164062	1150.675537109375	290.2844848632812	1214.052978515625	1162.32373046875	232.5033721923828	1481.432861328125	1162.930786132812	54.2031364440918	1393.310424804688	1151.473876953125	298.8207702636719	1341.903564453125	1091.184204101562	248.8257293701172	1445.366333007812	1266.061157226562	140.5772857666016	1450.675903320312	1332.258666992188	147.8313140869141	1322.61572265625	1410.94287109375	116.6629486083984	1104.884643554688	1418.950439453125	193.1042785644531	1093.105712890625	1344.978271484375	35.50316619873047	869.23876953125	1324.92724609375	80.39694213867188	855.0515747070312	1393.709228515625	91.70491027832031	995.4405517578125	1415.874389648438	24.55643844604492	684.3759765625	1294.187255859375	48.41460800170898	774.75537109375	1378.817626953125	11.72542285919189	786.2849731445312	1320.070190429688	178.1157836914062	1441.48388671875	983.7179565429688	190.6429443359375	1370.422241210938	922.00390625	207.3154449462891	1101.684814453125	903.706787109375	184.9827270507812	1085.4423828125	998.7578735351562	49.13613891601562	859.2490234375	940.6798095703125	120.8618240356445	838.7553100585938	894.74267578125	190.0174255371094	1022.507568359375	898.9244384765625	33.39912033081055	668.8555908203125	959.7466430664062	23.11892890930176	755.5309448242188	942.2105102539062	82.10997772216797	750.7933349609375	893.141357421875	193.0073852539062	1654.4111328125	1225.60791015625	69.42067718505859	1694.273193359375	1053.443969726562	33.5101432800293	1714.539916992188	1173.007690429688	222.2701721191406	1627.13818359375	1093.97412109375	177.02001953125	958.6674194335938	1325.93505859375	198.0912322998047	961.4364013671875	981.4613647460938	74.99398040771484	976.6152954101562	1005.613525390625	64.12867736816406	966.2184448242188	1273.279541015625	111.4555282592773	494.1296081542969	1277.101318359375	141.9808502197266	635.7860717773438	1312.643676757812	270.8242797851562	49.185791015625	1288.751220703125	198.4918212890625	258.3650817871094	1295.597778320312	65.23056793212891	46.24047470092773	1290.161376953125	111.5414962768555	44.57787704467773	1234.548706054688	169.3928833007812	40.66006851196289	1331.224365234375	319.768798828125	45.45734024047852	1210.541748046875	103.1488723754883	516.6879272460938	985.4428100585938	111.3964004516602	788.5202026367188	970.1962280273438	248.5139923095703	46.74877548217773	972.1613159179688	137.5467681884766	394.8294372558594	972.3577270507812	33.52406692504883	42.18762588500977	1004.802124023438	93.33226013183594	46.15825271606445	1045.994018554688	124.2911758422852	47.25674057006836	953.3292236328125	294.9696350097656	49.94085311889648	1029.8798828125	
92	0.91	267.0079956054688	1030.485107421875	1059.210083007812	278.2319030761719	1021.812072753906	1234.340209960938	269.4170227050781	1081.852416992188	1154.685913085938	22.4858283996582	1278.718994140625	1151.36572265625	288.8218383789062	1214.301147460938	1164.15576171875	230.1604919433594	1481.5283203125	1164.735473632812	52.24424743652344	1392.888793945312	1152.280639648438	297.3295288085938	1342.225219726562	1093.296020507812	245.9618225097656	1445.542846679688	1267.928100585938	137.4072570800781	1450.67138671875	1333.544921875	144.5578765869141	1322.7900390625	1412.47314453125	114.2522964477539	1104.8642578125	1420.398559570312	191.5003051757812	1093.441040039062	1347.279296875	34.98649978637695	869.1319580078125	1324.8154296875	79.09147644042969	854.9237670898438	1394.196899414062	89.70986938476562	995.2807006835938	1416.787475585938	25.33578300476074	684.2999267578125	1293.458862304688	47.61338806152344	774.5167846679688	1378.737548828125	11.33635234832764	786.1715087890625	1319.5771484375	176.9562225341797	1441.42138671875	985.2554321289062	190.1337890625	1370.434326171875	923.6682739257812	207.5601654052734	1101.880615234375	904.9974975585938	184.3426208496094	1085.367797851562	999.73193359375	48.96937561035156	859.3439331054688	939.7633666992188	121.1268768310547	838.922119140625	894.5667724609375	190.3677978515625	1022.669128417969	899.826904296875	32.91906356811523	668.9449462890625	958.2447509765625	22.88754081726074	755.7001953125	940.8124389648438	82.45214080810547	750.991943359375	892.383056640625	189.8993072509766	1654.488159179688	1227.02099609375	68.33175659179688	1693.795776367188	1053.227294921875	31.08189392089844	1714.590087890625	1172.363647460938	220.5937957763672	1626.614013671875	1095.836059570312	176.4588470458984	958.3945922851562	1326.112915039062	198.5521545410156	961.0826416015625	981.7609252929688	75.45950317382812	976.3509521484375	1005.856018066406	63.49646759033203	965.7754516601562	1273.36669921875	111.1771774291992	493.9987487792969	1277.464477539062	141.5442504882812	635.6940307617188	1312.971801757812	270.8455505371094	49.11223983764648	1288.815795898438	198.2589874267578	258.2018737792969	1295.989135742188	65.23614501953125	46.18124389648438	1290.205200195312	111.560302734375	44.56090927124023	1234.599487304688	169.4031219482422	40.5422477722168	1331.281127929688	319.8116760253906	45.45426559448242	1210.610107421875	95.33485412597656	517.0777587890625	984.876220703125	109.2182388305664	788.5741577148438	970.7634887695312	248.4014587402344	48.62191009521484	973.1175537109375	131.3095550537109	394.8913879394531	971.7067260742188	33.5272102355957	42.3448486328125	1004.275939941406	92.91203308105469	46.54012680053711	1045.70751953125	124.4328079223633	47.80717086791992	953.3709106445312	294.3377990722656	52.625244140625	1031.183837890625	
93	0.92	267.1683654785156	1030.29052734375	1059.980224609375	277.623046875	1021.682189941406	1234.889404296875	269.2297058105469	1082.399536132812	1155.69189453125	20.95800018310547	1278.052978515625	1151.852294921875	287.3153686523438	1214.56494140625	1165.993530273438	227.7062225341797	1481.618041992188	1166.510131835938	50.20444107055664	1392.392211914062	1152.932861328125	295.7936401367188	1342.569213867188	1095.40771484375	242.9167785644531	1445.685913085938	1269.762084960938	133.9965515136719	1450.58544921875	1334.729736328125	141.0230102539062	1322.914428710938	1413.932739257812	111.6642227172852	1104.781616210938	1421.868774414062	189.7550659179688	1093.708984375	1349.643310546875	34.35450744628906	868.9547119140625	1324.788696289062	77.65648651123047	854.7235107421875	1394.734252929688	87.548828125	995.0574340820312	1417.731689453125	25.98394012451172	684.1732788085938	1292.827758789062	46.70737457275391	774.2111206054688	1378.697387695312	10.94397163391113	785.9947509765625	1319.063110351562	175.7751922607422	1441.341064453125	986.7271118164062	189.6376647949219	1370.44287109375	925.2562255859375	207.8245544433594	1102.044921875	906.2283935546875	183.7720336914062	1085.265380859375	1000.644470214844	48.83346939086914	859.4258422851562	938.7561645507812	121.4315719604492	839.0678100585938	894.3320922851562	190.7679595947266	1022.796936035156	900.6729736328125	32.40808868408203	669.0301513671875	956.6453247070312	22.65763854980469	755.8878173828125	939.3109741210938	82.81783294677734	751.1700439453125	891.5548095703125	186.6691741943359	1654.508422851562	1228.390014648438	67.15953063964844	1693.269409179688	1052.99365234375	28.55413627624512	1714.568969726562	1171.6728515625	218.8045043945312	1626.048583984375	1097.677734375	175.7548065185547	958.079833984375	1326.242431640625	199.1472320556641	960.6290283203125	982.0875854492188	76.02649688720703	976.0828857421875	1005.922546386719	62.7836799621582	965.2756958007812	1273.289794921875	110.7447814941406	493.8563232421875	1277.610595703125	140.9227905273438	635.5606079101562	1313.136962890625	270.8558654785156	49.07776260375977	1288.850952148438	197.9210357666016	258.028564453125	1296.25390625	65.2161865234375	46.12420654296875	1290.216430664062	111.5585021972656	44.52630996704102	1234.617431640625	169.39453125	40.45685577392578	1331.299682617188	319.84228515625	45.46011734008789	1210.65673828125	86.99106597900391	517.6950073242188	983.9932250976562	106.8079681396484	788.7372436523438	971.1793212890625	248.1484222412109	50.98825073242188	974.3716430664062	124.6801681518555	395.217041015625	970.8861694335938	33.40740966796875	42.59672164916992	1003.522888183594	92.22402191162109	47.07656097412109	1045.360595703125	124.5901641845703	48.54219055175781	953.4515380859375	293.3544006347656	55.90517425537109	1032.927490234375	
